<svg width="40" height="40" viewBox="0 0 97 95" fill="none" xmlns="http://www.w3.org/2000/svg">
<path d="M43.7654 2.51241C46.5171 0.953797 49.885 0.953798 52.6367 2.51241L85.38 21.0588C88.2008 22.6565 89.9444 25.6479 89.9444 28.8898V65.6866C89.9444 68.9285 88.2008 71.9198 85.38 73.5176L52.6367 92.0639C49.885 93.6226 46.5171 93.6226 43.7654 92.0639L11.0221 73.5176C8.20126 71.9198 6.45772 68.9285 6.45772 65.6866V28.8898C6.45772 25.6479 8.20126 22.6565 11.0221 21.0588L43.7654 2.51241Z" fill="#003366"/>
<path d="M64.7284 25.6312C61.8991 22.8555 57.4147 21.7844 53.4134 21.7844H42.5939C40.8438 21.7844 39.3371 23.0198 38.9943 24.736C38.5405 27.0072 40.2778 29.1259 42.5939 29.1259H53.4134C55.43 29.1259 57.8545 29.5771 59.2805 30.976C60.5377 32.2094 60.7472 32.415 60.9568 34.4707C60.9568 36.4491 60.7064 37.3887 59.2805 38.7876C57.8545 40.1866 55.43 40.2856 53.4134 40.2856H45.0489C39.8013 40.2856 35.2843 43.9924 34.2604 49.1392L32.3588 58.6968C32.1468 59.7625 33.5472 60.354 34.1633 59.459L40.8177 49.792C41.7507 48.4367 43.2908 47.6271 44.9362 47.6271H53.4134C57.4147 47.6271 62.7373 46.497 65.5666 43.7213C68.3959 40.9456 68.9192 39.2184 68.9192 35.293C68.9192 31.3675 67.5577 28.4069 64.7284 25.6312Z" fill="white"/>
<path d="M36.595 61.6687L43.0476 52.6446C43.6491 51.8033 44.9758 52.3169 44.8541 53.3439L44.5296 56.0813C44.3886 57.2708 45.3178 58.3167 46.5157 58.3167H48.611C49.4238 58.3167 49.897 59.2347 49.4256 59.8967L42.9286 69.0203C42.2878 69.9201 40.8762 69.2698 41.1438 68.198L41.7587 65.7347C42.0737 64.4726 41.1191 63.2503 39.8182 63.2503H37.4085C36.5949 63.2503 36.1218 62.3305 36.595 61.6687Z" fill="white"/>
</svg>
