<svg id="visual" viewBox="0 0 960 540" width="960" height="540" xmlns="http://www.w3.org/2000/svg" xmlns:xlink="http://www.w3.org/1999/xlink" version="1.1"><path d="M0 25L6.2 25.3C12.3 25.7 24.7 26.3 37 28.7C49.3 31 61.7 35 74 37C86.3 39 98.7 39 111 34.3C123.3 29.7 135.7 20.3 148 16.2C160.3 12 172.7 13 185 17.5C197.3 22 209.7 30 221.8 31C234 32 246 26 258.2 23.3C270.3 20.7 282.7 21.3 295 21.7C307.3 22 319.7 22 332 22.2C344.3 22.3 356.7 22.7 369 21.8C381.3 21 393.7 19 406 19.7C418.3 20.3 430.7 23.7 443 25.8C455.3 28 467.7 29 480 28.8C492.3 28.7 504.7 27.3 517 25C529.3 22.7 541.7 19.3 554 18.8C566.3 18.3 578.7 20.7 591 24.3C603.3 28 615.7 33 628 34.7C640.3 36.3 652.7 34.7 665 31.3C677.3 28 689.7 23 701.8 20C714 17 726 16 738.2 16.2C750.3 16.3 762.7 17.7 775 17.2C787.3 16.7 799.7 14.3 812 12.8C824.3 11.3 836.7 10.7 849 13.3C861.3 16 873.7 22 886 24.2C898.3 26.3 910.7 24.7 923 26.5C935.3 28.3 947.7 33.7 953.8 36.3L960 39L960 0L953.8 0C947.7 0 935.3 0 923 0C910.7 0 898.3 0 886 0C873.7 0 861.3 0 849 0C836.7 0 824.3 0 812 0C799.7 0 787.3 0 775 0C762.7 0 750.3 0 738.2 0C726 0 714 0 701.8 0C689.7 0 677.3 0 665 0C652.7 0 640.3 0 628 0C615.7 0 603.3 0 591 0C578.7 0 566.3 0 554 0C541.7 0 529.3 0 517 0C504.7 0 492.3 0 480 0C467.7 0 455.3 0 443 0C430.7 0 418.3 0 406 0C393.7 0 381.3 0 369 0C356.7 0 344.3 0 332 0C319.7 0 307.3 0 295 0C282.7 0 270.3 0 258.2 0C246 0 234 0 221.8 0C209.7 0 197.3 0 185 0C172.7 0 160.3 0 148 0C135.7 0 123.3 0 111 0C98.7 0 86.3 0 74 0C61.7 0 49.3 0 37 0C24.7 0 12.3 0 6.2 0L0 0Z" fill="#195C51" stroke-linecap="round" stroke-linejoin="miter"></path></svg>